<svg xmlns="http://www.w3.org/2000/svg" version="1.1" width="436" height="449">
<path d="M0 0 C7.90816789 7.90816789 7.30131506 16.25731001 7.31884766 26.82983398 C7.3281562 28.22986931 7.33832624 29.62989913 7.34928894 31.02992249 C7.37649871 34.8144996 7.39171145 38.59903968 7.40471697 42.38368869 C7.42038716 46.34487051 7.44716492 50.30597714 7.4727478 54.2671051 C7.5194669 61.76086229 7.55624418 69.25463373 7.58942068 76.74846178 C7.62769069 85.2829702 7.67708803 93.81740296 7.72740483 102.35184753 C7.83062249 119.9011769 7.91991583 137.45055012 8 155 C9.42406442 154.99585193 9.42406442 154.99585193 10.87689781 154.99162006 C33.99659207 154.9249679 57.11627383 154.87569732 80.23604393 154.84456348 C91.41667474 154.82910652 102.59724201 154.80803933 113.77783203 154.77368164 C123.52488359 154.7437435 133.27188913 154.72441649 143.01898539 154.71773452 C148.17813416 154.71382975 153.33715128 154.70467731 158.49625778 154.68280983 C163.35697223 154.66237497 168.21750137 154.65618033 173.0782547 154.66067696 C174.85755293 154.65985488 176.63685767 154.65393109 178.41611862 154.64238358 C192.8365072 154.55342279 204.31058821 155.80448017 215.19921875 166.07421875 C224.41978975 175.84018397 226.52471561 185.6034532 226.26171875 198.67578125 C225.73911267 210.45608712 219.2363435 218.25420603 212 227 C210.93485914 228.30750427 209.87110035 229.61613542 208.80859375 230.92578125 C207.14798533 232.97190126 205.48617224 235.01691978 203.81860352 237.05737305 C199.63248646 242.18535106 195.59528722 247.40731305 191.58203125 252.671875 C188.69352598 256.42704455 185.69004287 260.08585728 182.6875 263.75 C178.19849486 269.23055511 173.83625668 274.78764692 169.5625 280.4375 C164.61408487 286.97559629 159.47713212 293.32427476 154.23071289 299.62475586 C150.19469586 304.49291829 146.31174454 309.45477122 142.5 314.5 C137.57430816 321.01965052 132.45879524 327.34639159 127.23046875 333.625 C123.19458242 338.49312009 119.31167527 343.4548629 115.5 348.5 C110.57430816 355.01965052 105.45879524 361.34639159 100.23046875 367.625 C96.19458242 372.49312009 92.31167527 377.4548629 88.5 382.5 C83.57653237 389.01670654 78.4643202 395.34147245 73.23706055 401.61621094 C69.13154678 406.56679293 65.18948479 411.61900241 61.3125 416.75 C42.41336768 441.70544518 42.41336768 441.70544518 34 444 C27.47328417 444.82680085 22.38567554 443.8436716 17 440 C11.26449728 434.97666613 9.32661287 429.57732512 8.78835678 422.03392029 C8.67445777 418.43534025 8.62172353 414.84048068 8.58935547 411.24023438 C8.57016695 409.85975005 8.55014504 408.4792771 8.52935791 407.09881592 C8.47558216 403.37220891 8.43339029 399.64555209 8.39335394 395.91877556 C8.34943419 392.01627545 8.29475532 388.11392606 8.24124146 384.21154785 C8.14165666 376.83120941 8.05168007 369.4507867 7.96519673 362.07028437 C7.86622097 353.66387164 7.75647091 345.25761023 7.64583755 336.85134411 C7.41861091 319.56770282 7.20484405 302.28392076 7 285 C6.07823597 285.00276538 5.15647194 285.00553076 4.20677567 285.00837994 C-18.2543502 285.07472374 -40.71545911 285.12432142 -63.17666245 285.15543652 C-74.03887203 285.1708847 -84.90101608 285.19193498 -95.76318359 285.22631836 C-105.23411392 285.25628351 -114.70499676 285.27558989 -124.17597318 285.28226548 C-129.18763436 285.2861657 -134.19915975 285.29528888 -139.21077728 285.31719017 C-143.93525057 285.33766784 -148.6595331 285.34381114 -153.38404655 285.33932304 C-155.11090319 285.34014322 -156.8377667 285.34604129 -158.56458473 285.35761642 C-173.76548854 285.45444702 -187.50981236 284.07766151 -199.1875 273.4375 C-208.06542115 264.11568279 -210.51520482 253.50053557 -210.26953125 241.109375 C-209.55209306 225.68622096 -197.57629477 214.37415277 -188.30078125 203.05078125 C-185.28218393 199.35885173 -182.31500759 195.6297021 -179.375 191.875 C-178.92777588 191.30402588 -178.48055176 190.73305176 -178.01977539 190.14477539 C-176.67877138 188.43069003 -175.33911702 186.71555987 -174 185 C-167.67205131 176.89318433 -161.2716871 168.85630752 -154.76611328 160.89111328 C-150.60182094 155.77752544 -146.58016832 150.57285408 -142.58203125 145.328125 C-139.69352598 141.57295545 -136.69004287 137.91414272 -133.6875 134.25 C-129.19849486 128.76944489 -124.83625668 123.21235308 -120.5625 117.5625 C-115.61408487 111.02440371 -110.47713212 104.67572524 -105.23071289 98.37524414 C-101.19469531 93.50708105 -97.31175328 88.54522342 -93.5 83.5 C-88.50481656 76.88857077 -83.31863859 70.46740433 -78.02172852 64.09594727 C-73.72962496 58.92156799 -69.61585795 53.64514404 -65.546875 48.29296875 C-62.67473372 44.54575748 -59.68020052 40.90110348 -56.6875 37.25 C-52.13126159 31.68954864 -47.71268275 26.044853 -43.375 20.3125 C-39.34925824 15.01865564 -35.29258855 9.757771 -31.0625 4.625 C-30.22847656 3.60664063 -29.39445313 2.58828125 -28.53515625 1.5390625 C-20.17113519 -6.83784611 -9.25725995 -6.5868965 0 0 Z " fill="#32B379" transform="translate(210,5)"/>
<path d="M0 0 C7.39063573 7.39063573 7.2994447 14.89727494 7.31884766 24.78271484 C7.33390759 26.55472653 7.33390759 26.55472653 7.34927177 28.36253643 C7.3749092 31.62395761 7.39176725 34.88528351 7.4046917 38.14677548 C7.4206351 41.65872347 7.44760459 45.17059004 7.47302246 48.68247986 C7.52068802 55.53206862 7.55734941 62.38167448 7.58992171 69.23135 C7.61649198 74.78132294 7.64720163 80.33125919 7.68060303 85.88119507 C7.95229369 131.21978055 8.09825611 176.55887258 8.12139618 221.89826632 C8.12358604 226.18437763 8.12688319 230.47048609 8.13106608 234.75659591 C8.13819021 242.15998679 8.1395834 249.56334348 8.13444519 256.96673775 C8.13336524 259.42011053 8.1338987 261.8734846 8.13612366 264.32685661 C8.1386461 267.65062738 8.13494091 270.97433005 8.12939453 274.2980957 C8.13142191 275.27797644 8.13344929 276.25785717 8.1355381 277.26743126 C8.13271513 278.14869997 8.12989216 279.02996868 8.12698364 279.9379425 C8.1264181 281.086847 8.1264181 281.086847 8.12584114 282.25896168 C8 284 8 284 7 285 C4.69820572 285.10373506 2.39315977 285.13524258 0.08903503 285.14044189 C-0.64247558 285.14341302 -1.37398619 285.14638414 -2.12766379 285.1494453 C-4.59789723 285.1581702 -7.06808242 285.15964378 -9.53833008 285.16113281 C-11.30223698 285.16575867 -13.06614289 285.17078301 -14.83004761 285.17617798 C-19.63849162 285.18933478 -24.44692165 285.19575442 -29.25538087 285.20018864 C-32.26110857 285.20311679 -35.26683244 285.20722132 -38.27255821 285.21169281 C-47.68053127 285.22538232 -57.08849557 285.23503932 -66.4964779 285.2388947 C-77.34749015 285.24336575 -88.19837583 285.26086308 -99.04934961 285.2898953 C-107.43845018 285.31155836 -115.82751528 285.32160161 -124.21664351 285.32293582 C-129.22492595 285.32398143 -134.23308963 285.32983592 -139.24134254 285.34775543 C-143.96173772 285.36431394 -148.68192595 285.36635406 -153.40233994 285.35761642 C-155.12757995 285.35684994 -156.85283142 285.36113704 -158.57804298 285.37107468 C-173.77139515 285.4533985 -187.51615832 284.07187937 -199.1875 273.4375 C-208.06542115 264.11568279 -210.51520482 253.50053557 -210.26953125 241.109375 C-209.55209306 225.68622096 -197.57629477 214.37415277 -188.30078125 203.05078125 C-185.28218393 199.35885173 -182.31500759 195.6297021 -179.375 191.875 C-178.92777588 191.30402588 -178.48055176 190.73305176 -178.01977539 190.14477539 C-176.67877138 188.43069003 -175.33911702 186.71555987 -174 185 C-167.67205131 176.89318433 -161.2716871 168.85630752 -154.76611328 160.89111328 C-150.60182094 155.77752544 -146.58016832 150.57285408 -142.58203125 145.328125 C-139.69352598 141.57295545 -136.69004287 137.91414272 -133.6875 134.25 C-129.19849486 128.76944489 -124.83625668 123.21235308 -120.5625 117.5625 C-115.61408487 111.02440371 -110.47713212 104.67572524 -105.23071289 98.37524414 C-101.19469531 93.50708105 -97.31175328 88.54522342 -93.5 83.5 C-88.50481656 76.88857077 -83.31863859 70.46740433 -78.02172852 64.09594727 C-73.72962496 58.92156799 -69.61585795 53.64514404 -65.546875 48.29296875 C-62.67473372 44.54575748 -59.68020052 40.90110348 -56.6875 37.25 C-52.13126159 31.68954864 -47.71268275 26.044853 -43.375 20.3125 C-39.34925824 15.01865564 -35.29258855 9.757771 -31.0625 4.625 C-30.22847656 3.60664063 -29.39445313 2.58828125 -28.53515625 1.5390625 C-20.17113519 -6.83784611 -9.25725995 -6.5868965 0 0 Z " fill="#3ECE8D" transform="translate(210,5)"/>
</svg>