<svg xmlns="http://www.w3.org/2000/svg" viewBox="0 0 333334 199007" shape-rendering="geometricPrecision" text-rendering="geometricPrecision" image-rendering="optimizeQuality" fill-rule="evenodd" clip-rule="evenodd"><path d="M31367 0h270601c8631 0 16474 3528 22156 9210 5683 5683 9211 13526 9211 22156v136275c0 8629-3529 16472-9211 22155-5683 5683-13526 9211-22155 9211H31368c-8629 0-16473-3528-22156-9211C3530 184114 2 176272 2 167641V31366c0-8631 3528-16474 9210-22156S22738 0 31369 0zm270601 10811H31367c-5647 0-10785 2315-14513 6043s-6043 8866-6043 14513v136275c0 5646 2315 10784 6043 14512 3729 3729 8868 6044 14513 6044h270601c5645 0 10783-2315 14512-6044 3728-3729 6044-8867 6044-14511V31368c0-5645-2315-10784-6043-14513-3728-3728-8867-6043-14513-6043z" fill="gray" fill-rule="nonzero"/><path d="M270577 100947c0-14778-7158-26439-20840-26439-13739 0-22052 11661-22052 26324 0 17376 9814 26151 23899 26151 6870 0 12065-1559 15991-3752v-11545c-3926 1963-8428 3175-14143 3175-5599 0-10564-1963-11199-8775h28229c0-751 115-3753 115-5138zM77362 90152c0-2252 1847-3117 4907-3117 4387 0 9929 1328 14317 3694V77163c-4791-1905-9525-2656-14317-2656-11719 0-19512 6119-19512 16337 0 15933 21936 13393 21936 20262 0 2656-2309 3522-5542 3522-4792 0-10911-1963-15760-4619v13739c5369 2309 10795 3291 15760 3291 12007 0 20262-5946 20262-16279-57-17203-22052-14144-22052-20609zm39024-27190l-14085 3002-58 46240c0 8544 6408 14836 14952 14836 4733 0 8197-866 10102-1905v-11719c-1847 750-10968 3406-10968-5138V87785h10968V75489h-10968l58-12527zm28864 16799l-924-4272h-12469v50512h14432V91769c3406-4445 9179-3637 10968-3002V75489c-1847-693-8601-1963-12007 4272zm15529 46240h14490V75489h-14490v50512zm0-54899l14490-3117V56266l-14490 3059v11776zm44624 3406c-5657 0-9294 2656-11315 4503l-750-3580h-12700v67311l14432-3059 57-16337c2078 1501 5138 3637 10218 3637 10333 0 19743-8313 19743-26612-58-16741-9583-25862-19685-25862zm-3464 39774c-3406 0-5426-1213-6812-2713l-57-21417c1501-1674 3579-2829 6869-2829 5253 0 8890 5888 8890 13450 0 7736-3579 13509-8890 13509zm40121-18819c0-6523 3983-9237 7620-9237 3521 0 7274 2713 7274 9237h-14894z" fill="#32325d"/></svg>